<?xml version="1.0" encoding="utf-8"?>
<!-- Generator: Adobe Illustrator 27.4.1, SVG Export Plug-In . SVG Version: 6.00 Build 0)  -->
<svg version="1.1" id="Capa_1" xmlns="http://www.w3.org/2000/svg" xmlns:xlink="http://www.w3.org/1999/xlink" x="0px" y="0px"
	 viewBox="0 0 70.1 57.7" style="enable-background:new 0 0 70.1 57.7;" xml:space="preserve">
<g>
	<path d="M66.6,4.2c-0.9-0.9-2-1.4-3.3-1.4H6.7c-0.5,0-1.1,0.1-1.6,0.4C3.2,3.8,1.9,5.8,1.9,8.1v42c0,2.2,1.3,4.2,3.2,4.9
		c0.5,0.2,1.1,0.4,1.6,0.4h56.7c0.5,0,1.1-0.1,1.6-0.4c1.9-0.7,3.2-2.7,3.2-4.9v-42C68.1,6.5,67.6,5.3,66.6,4.2z M60.5,7L35.8,30.8
		c-0.3,0.4-1,0.4-1.3,0L9.9,7H60.5z M64.3,37c0.1,3.1,0.2,11.1-1.1,12.5c-1.2,1.3-4.2,1.4-5.3,1.4c-15.3,0-30.6,0-45.9,0
		c-2.2,0-3.6,0-5.2-1.8c-1.1-1.4-1-9.4-1-10.4c0-2.1,0-18,0-29.9l25.8,25c0.9,0.9,2,1.5,3.2,1.5H35c1.3,0,2.5-0.6,3.3-1.5l26-25V37z
		"/>
	<path d="M63.3,57H6.7c-0.7,0-1.5-0.2-2.2-0.5c-2.5-1-4.3-3.6-4.3-6.5v-42c0-2.9,1.7-5.5,4.3-6.5c0.7-0.3,1.5-0.5,2.2-0.5h56.7
		c1.8,0,3.4,0.7,4.6,2v0c1.3,1.4,1.9,3.1,1.9,5v42c0,2.9-1.7,5.5-4.3,6.5C64.8,56.9,64.1,57,63.3,57z M4.1,6
		C3.8,6.6,3.5,7.3,3.5,8.1v42c0,1.5,0.8,2.9,2.1,3.4l0.1,0c0.3,0.1,0.6,0.2,0.9,0.2h56.7c0.3,0,0.6-0.1,0.9-0.2l0.1,0
		c1.3-0.5,2.1-1.8,2.1-3.4v-42c0-0.7-0.2-1.4-0.5-2V37c0.3,11.7-1,13.1-1.5,13.7c-1.2,1.3-3.3,1.9-6.6,1.9H12c-2.3,0-4.3,0-6.5-2.4
		l-0.1-0.1C5,49.5,4.1,48.3,4.1,38.8l0-0.2c0-1.5,0-9.9,0-18.9L4.1,6z M8.1,48.1c1.1,1.2,1.8,1.2,3.9,1.2h45.9c3.2,0,4-0.7,4.1-0.8
		c0.3-0.5,0.8-3.6,0.6-11.4l0,0V12.7L39.5,35c-1.2,1.3-2.8,2-4.5,2h-0.1c-1.6,0-3.2-0.7-4.4-2L7.5,12.7l0,7c0,9,0,17.4,0,18.9l0,0.2
		C7.4,46,8,47.7,8.1,48.1z M4.7,5.3l28.2,27.4c0.6,0.6,1.3,1,2,1H35c0.8,0,1.5-0.3,2.1-1l0.1-0.1L65.4,5.4c0,0,0,0,0,0
		c-0.6-0.7-1.5-0.9-2.1-0.9H6.7c-0.3,0-0.6,0.1-0.9,0.2l-0.1,0C5.3,4.9,5,5.1,4.7,5.3z M35.2,32.7c-0.7,0-1.4-0.3-1.8-0.8L5.7,5.3
		h58.9L37,32C36.5,32.4,35.9,32.7,35.2,32.7z M14,8.7l21.1,20.4L56.3,8.7H14z"/>
</g>
</svg>
